<?xml version="1.0" encoding="iso-8859-1"?>
<!-- Generator: Adobe Illustrator 16.0.0, SVG Export Plug-In . SVG Version: 6.00 Build 0)  -->
<!DOCTYPE svg PUBLIC "-//W3C//DTD SVG 1.1//EN" "http://www.w3.org/Graphics/SVG/1.1/DTD/svg11.dtd">
<svg version="1.1" id="Capa_1" xmlns="http://www.w3.org/2000/svg" xmlns:xlink="http://www.w3.org/1999/xlink" x="0px" y="0px"
	 width="472.776px" height="472.777px" viewBox="0 0 472.776 472.777" style="enable-background:new 0 0 472.776 472.777;"
	 xml:space="preserve">
<g>
	<path d="M472.616,81.858c-0.297-0.97-0.948-1.767-1.842-2.244l-98.788-52.87c-0.347-0.187-0.721-0.316-1.097-0.381
		c-0.229-0.046-0.475-0.069-0.73-0.069H102.564c-0.715,0-1.411,0.201-1.982,0.562L2.006,79.615
		c-0.894,0.479-1.548,1.276-1.841,2.246c-0.294,0.971-0.192,1.997,0.287,2.891l45.405,84.843c0.473,0.882,1.292,1.553,2.247,1.842
		c0.292,0.088,0.602,0.135,0.941,0.144l0.158,0.019c0.054,0,0.109-0.007,0.147-0.017c0.197-0.008,0.392-0.033,0.664-0.086
		c0.064-0.012,0.128-0.023,0.182-0.039c0.304-0.082,0.565-0.183,0.798-0.309l47.775-25.568v297.106c0,2.092,1.703,3.795,3.795,3.795
		H370.16c2.093,0,3.795-1.703,3.795-3.795V145.549l47.832,25.6c0.229,0.123,0.489,0.225,0.799,0.31
		c0.061,0.017,0.121,0.028,0.249,0.051c0.198,0.04,0.396,0.065,0.594,0.073l0.149,0.015c0.068,0,0.124-0.012,0.114-0.015
		c0.367-0.01,0.689-0.059,0.984-0.148c0.971-0.293,1.768-0.947,2.245-1.841l45.406-84.841
		C472.8,83.87,472.905,82.816,472.616,81.858z M63.822,155.674l-13.065,6.993L8.932,84.516l13.064-6.991L63.822,155.674z
		 M228.321,39.477v-5.592h16.136v5.592H228.321z M366.361,214.478v14.38H106.359v-14.38H366.361z M366.359,236.448v202.443H106.358
		V236.448H366.359z M224.525,47.066h23.728c2.093,0,3.796-1.702,3.796-3.795v-9.388h39.99l-55.651,55.65L180.74,33.885h39.99v9.387
		C220.73,45.364,222.433,47.066,224.525,47.066z M366.359,139.214v45.704H106.358v-45.674c0-1.325-0.707-2.573-1.845-3.256
		c-1.125-0.674-2.588-0.711-3.741-0.091l-30.257,16.192L28.691,73.94l74.843-40.058h66.472l63.699,63.701
		c1.429,1.43,3.937,1.434,5.371,0l63.698-63.701h66.473L444.09,73.94l-41.825,78.149l-30.317-16.222
		c-1.153-0.618-2.616-0.584-3.741,0.091C367.066,136.639,366.359,137.887,366.359,139.214z M366.359,192.506v14.38H106.358v-14.38
		H366.359z M463.845,84.515l-41.823,78.15l-13.064-6.993l41.824-78.148L463.845,84.515z"/>
</g>
<g>
</g>
<g>
</g>
<g>
</g>
<g>
</g>
<g>
</g>
<g>
</g>
<g>
</g>
<g>
</g>
<g>
</g>
<g>
</g>
<g>
</g>
<g>
</g>
<g>
</g>
<g>
</g>
<g>
</g>
</svg>
