<?xml version="1.0" encoding="iso-8859-1"?>
<!-- Generator: Adobe Illustrator 19.0.0, SVG Export Plug-In . SVG Version: 6.00 Build 0)  -->
<svg version="1.1" id="Layer_1" xmlns="http://www.w3.org/2000/svg" xmlns:xlink="http://www.w3.org/1999/xlink" x="0px" y="0px"
	 viewBox="0 0 496 496" style="enable-background:new 0 0 496 496;" xml:space="preserve">
<g>
	<g>
		<g>
			<path d="M464,216v-56h-48v-48h-80v104H160V112H80v48H32v56H0v64h32v56h48v48h80V280h176v104h80v-48h48v-56h32v-64H464z M32,264
				H16v-32h16V264z M80,320H48V176h32V320z M144,368H96V128h48V368z M336,264H160v-32h176V264z M400,368h-48V128h48V368z M448,320
				h-32V176h32V320z M480,264h-16v-32h16V264z"/>
			<rect x="368" y="256" width="16" height="16"/>
			<rect x="368" y="224" width="16" height="16"/>
			<rect x="368" y="288" width="16" height="16"/>
			<rect x="368" y="192" width="16" height="16"/>
			<rect x="112" y="256" width="16" height="16"/>
			<rect x="112" y="224" width="16" height="16"/>
			<rect x="112" y="288" width="16" height="16"/>
			<rect x="112" y="192" width="16" height="16"/>
		</g>
	</g>
</g>
<g>
</g>
<g>
</g>
<g>
</g>
<g>
</g>
<g>
</g>
<g>
</g>
<g>
</g>
<g>
</g>
<g>
</g>
<g>
</g>
<g>
</g>
<g>
</g>
<g>
</g>
<g>
</g>
<g>
</g>
</svg>
