<?xml version="1.0" encoding="iso-8859-1"?>
<!-- Generator: Adobe Illustrator 18.0.0, SVG Export Plug-In . SVG Version: 6.00 Build 0)  -->
<!DOCTYPE svg PUBLIC "-//W3C//DTD SVG 1.1//EN" "http://www.w3.org/Graphics/SVG/1.1/DTD/svg11.dtd">
<svg version="1.1" id="Capa_1" xmlns="http://www.w3.org/2000/svg" xmlns:xlink="http://www.w3.org/1999/xlink" x="0px" y="0px"
	 viewBox="0 0 402.075 402.075" style="enable-background:new 0 0 402.075 402.075;" xml:space="preserve">
<path d="M400.923,108.454c0,0-59.253-73.4-63.309-76.215c-1.595-1.107-35.85-31.894-87.913-31.894v0.01
	c-1.65,0.002-3.264,0.809-4.217,2.303l-4.572,7.175c-5.871,2.852-19.36,5.936-39.98,5.936c-20.963,0-34.447-3.137-40.211-6.041
	l-4.03-6.903c-0.896-1.536-2.54-2.479-4.318-2.479c-52.063,0-86.273,30.856-87.913,31.894c-3.924,2.485-63.309,76.215-63.309,76.215
	c-1.614,1.945-1.523,4.789,0.212,6.626l48.463,51.315c0.962,1.019,2.285,1.567,3.636,1.567c0.584,0,1.174-0.103,1.742-0.314
	l16.468-6.125v235.208c0,2.761,2.239,5,5,5h248.728c2.761,0,5-2.239,5-5l0-235.208l16.468,6.125
	c0.568,0.211,1.158,0.314,1.742,0.314c1.351,0,2.674-0.548,3.636-1.567l48.463-51.315
	C402.446,113.243,402.537,110.399,400.923,108.454z M71.674,117.284v33.569l-16.85,6.268l-43.149-45.688L66.253,45.66
	C71.115,63.832,71.861,101.973,71.674,117.284z M200.933,25.768c12.031,0,22.972-1.029,31.664-2.886l-33.503,52.576l-30.814-52.785
	C177.104,24.662,188.402,25.768,200.933,25.768z M320.402,211.445H81.673v-80.144h238.728V211.445z M320.402,221.445v80.143H81.674
	l-0.001-80.143H320.402z M81.674,391.731v-80.144h238.728v80.144H81.674z M320.402,121.301H81.673c0,0,0.472-63.211-7.67-83.964
	c8.713-6.763,36.862-26.043,75.52-26.959l45.065,77.199c0.878,1.505,2.478,2.445,4.221,2.479c1.711,0.034,3.377-0.842,4.314-2.312
	l49.294-77.357c38.606,0.878,66.905,20.194,75.652,26.958C319.929,58.103,320.402,121.301,320.402,121.301z M347.252,157.121
	l-16.851-6.268v-33.631c-0.189-15.257,0.555-53.391,5.421-71.564l54.579,65.774L347.252,157.121z"/>
<g>
</g>
<g>
</g>
<g>
</g>
<g>
</g>
<g>
</g>
<g>
</g>
<g>
</g>
<g>
</g>
<g>
</g>
<g>
</g>
<g>
</g>
<g>
</g>
<g>
</g>
<g>
</g>
<g>
</g>
</svg>
