<?xml version="1.0" encoding="iso-8859-1"?>
<!-- Generator: Adobe Illustrator 19.0.0, SVG Export Plug-In . SVG Version: 6.00 Build 0)  -->
<svg version="1.1" id="Layer_1" xmlns="http://www.w3.org/2000/svg" xmlns:xlink="http://www.w3.org/1999/xlink" x="0px" y="0px"
	 viewBox="0 0 463 463" style="enable-background:new 0 0 463 463;" xml:space="preserve">
<g>
	<g>
		<g>
			<path d="M196.574,138.149c-0.33-4.128-3.946-7.201-8.074-6.878c-4.129,0.33-7.208,3.945-6.878,8.074l3.487,43.585
				c0.314,3.925,3.597,6.902,7.468,6.902c0.201,0,0.403-0.008,0.606-0.024c4.129-0.33,7.208-3.945,6.878-8.074L196.574,138.149z"/>
			<path d="M186.811,117.762c0.201,0,0.403-0.008,0.606-0.024c4.129-0.33,7.208-3.945,6.878-8.074l-0.861-10.762
				c-0.33-4.128-3.946-7.205-8.074-6.878c-4.129,0.33-7.208,3.945-6.878,8.074l0.861,10.762
				C179.657,114.785,182.94,117.762,186.811,117.762z"/>
			<path d="M455.5,340H399V187.5c0-4.142-3.358-7.5-7.5-7.5H367v-17.909c13.759-3.374,24-15.806,24-30.591
				c0-14.483-20.792-52.248-24.96-59.672C364.712,69.464,362.211,68,359.5,68s-5.212,1.464-6.54,3.828
				C348.792,79.252,328,117.017,328,131.5c0,14.785,10.241,27.216,24,30.591V180h-24.5c-4.142,0-7.5,3.358-7.5,7.5V340h-17v-80.5
				c0-4.142-3.358-7.5-7.5-7.5H279v-18.234c9.29-3.138,16-11.93,16-22.266c0-9.881-12.88-35.737-16.828-43.426
				c-1.284-2.501-3.86-4.074-6.672-4.074s-5.388,1.573-6.672,4.074C260.88,175.763,248,201.619,248,211.5
				c0,10.336,6.71,19.128,16,22.266V252h-16.5c-4.142,0-7.5,3.358-7.5,7.5V340h-89v-65.326c21.952-1.877,42.66-11.924,57.704-28.219
				c16.748-18.141,25.224-42.661,23.255-67.272l-8.982-112.28C222.664,63.004,219.41,60,215.5,60h-144
				c-3.91,0-7.164,3.004-7.476,6.902l-8.982,112.28c-1.969,24.611,6.507,49.131,23.255,67.272
				c15.044,16.296,35.751,26.343,57.704,28.22V340H7.5c-4.142,0-7.5,3.358-7.5,7.5c0,4.142,3.358,7.5,7.5,7.5h80.073l19.881,31.198
				c-3.78,1.17-7.795,1.802-11.954,1.802c-4.142,0-7.5,3.358-7.5,7.5c0,4.142,3.358,7.5,7.5,7.5h296c4.142,0,7.5-3.358,7.5-7.5V355
				h56.5c4.142,0,7.5-3.358,7.5-7.5C463,343.358,459.642,340,455.5,340z M343,131.5c0-6.114,8.316-24.401,16.521-40.225
				C370.834,112.949,376,127.517,376,131.5c0,9.098-7.402,16.5-16.5,16.5C350.402,148,343,140.598,343,131.5z M263,211.5
				c0.015-2.931,3.769-12.487,8.5-22.814c4.731,10.324,8.484,19.88,8.5,22.814c0,4.687-3.813,8.5-8.5,8.5S263,216.187,263,211.5z
				 M255,267h33v73h-33V267z M69.994,180.378L78.424,75h130.152l8.43,105.378c0.647,8.084-0.017,16.027-1.882,23.622H71.876
				C70.01,196.405,69.347,188.462,69.994,180.378z M89.318,236.279c-4.862-5.266-8.841-11.082-11.93-17.279h132.225
				c-3.089,6.197-7.068,12.013-11.93,17.28C183.561,251.576,164.318,260,143.5,260S103.439,251.576,89.318,236.279z
				 M120.742,379.137L105.36,355h29.933C133.467,364.707,128.171,373.198,120.742,379.137z M133.39,388
				c3.957-3.704,7.369-7.978,10.11-12.692c2.741,4.714,6.153,8.988,10.11,12.692H133.39z M327.5,388h-136
				c-19.768,0-36.264-14.241-39.792-33h205.914l-16.217,25.384C338.357,385.153,333.16,388,327.5,388z M384,388h-29.661l21.083-33
				H384V388z M384,340h-49V195h49V340z"/>
		</g>
	</g>
</g>
<g>
</g>
<g>
</g>
<g>
</g>
<g>
</g>
<g>
</g>
<g>
</g>
<g>
</g>
<g>
</g>
<g>
</g>
<g>
</g>
<g>
</g>
<g>
</g>
<g>
</g>
<g>
</g>
<g>
</g>
</svg>
