<?xml version="1.0" encoding="iso-8859-1"?>
<!-- Generator: Adobe Illustrator 18.0.0, SVG Export Plug-In . SVG Version: 6.00 Build 0)  -->
<!DOCTYPE svg PUBLIC "-//W3C//DTD SVG 1.1//EN" "http://www.w3.org/Graphics/SVG/1.1/DTD/svg11.dtd">
<svg version="1.1" id="Capa_1" xmlns="http://www.w3.org/2000/svg" xmlns:xlink="http://www.w3.org/1999/xlink" x="0px" y="0px"
	 viewBox="0 0 425.381 425.381" style="enable-background:new 0 0 425.381 425.381;" xml:space="preserve">
<path d="M274.209,16.532L259.144,1.467c-1.015-1.016-2.414-1.555-3.851-1.455c-1.433,0.091-2.758,0.793-3.637,1.928l-23.323,30.105
	h-31.286L173.725,1.939c-0.88-1.135-2.205-1.837-3.638-1.928c-1.441-0.098-2.836,0.44-3.851,1.455l-15.066,15.065
	c-1.016,1.015-1.546,2.418-1.455,3.852c0.091,1.434,0.794,2.758,1.93,3.638l36.75,28.448l8.594,19.717l-18.866,31.727
	c-0.412,0.693-0.65,1.475-0.694,2.279l-14.673,265.309c-0.075,1.352,0.401,2.677,1.321,3.671l44.936,48.603
	c0.985,1.065,2.326,1.605,3.672,1.605c1.214,0,2.432-0.439,3.394-1.329c0.099-0.091,45.211-48.88,45.211-48.88
	c0.919-0.994,1.395-2.318,1.32-3.671l-14.672-265.309c-0.044-0.805-0.282-1.586-0.694-2.279l-18.865-31.728l8.588-19.701
	l36.768-28.463c1.136-0.88,1.839-2.204,1.93-3.638C275.755,18.95,275.225,17.548,274.209,16.532z M230.607,42.045l-11.111,25.493
	h-13.624l-11.112-25.493H230.607z M169.294,12.55l15.537,20.058c-0.754,0.39-1.409,0.966-1.889,1.698
	c-0.193,0.295-0.346,0.609-0.471,0.933l-20.216-15.649L169.294,12.55z M238.021,107.97l1.418,25.646l-55.432,34.72l1.887-34.107
	l49.357-30.915L238.021,107.97z M180.769,226.888l61.691-38.639l1.76,31.822l-65.338,40.925L180.769,226.888z M178.207,273.219
	l66.645-41.743l1.76,31.824l-70.29,44.025L178.207,273.219z M175.645,319.548l71.597-44.844l1.76,31.824l-75.243,47.128
	L175.645,319.548z M241.83,176.845l-60.385,37.82l1.887-34.107l56.738-35.538L241.83,176.845z M173.083,365.879l76.55-47.946
	l1.76,31.823l-61.551,38.552l-16.983-18.369L173.083,365.879z M212.683,413.016L196.75,395.78l55.273-34.62l0.485,8.778
	L212.683,413.016z M230.14,94.715l-43.57,27.29l0.776-14.035l18.095-30.432h14.485L230.14,94.715z M242.897,35.247
	c-0.126-0.326-0.278-0.644-0.474-0.941c-0.477-0.729-1.13-1.305-1.879-1.693l15.542-20.063l7.038,7.039L242.897,35.247z"/>
<g>
</g>
<g>
</g>
<g>
</g>
<g>
</g>
<g>
</g>
<g>
</g>
<g>
</g>
<g>
</g>
<g>
</g>
<g>
</g>
<g>
</g>
<g>
</g>
<g>
</g>
<g>
</g>
<g>
</g>
</svg>
